<svg xmlns="http://www.w3.org/2000/svg" viewBox="0 0 900 140" width="900" height="140" role="img" aria-label="Jose Miguel García Vélez" xmlns:c2pa="http://c2pa.org/manifest"><metadata><c2pa:manifest>AAAWgmp1bWIAAAAeanVtZGMycGEAEQAQgAAAqgA4m3EDYzJwYQAAABZcanVtYgAAAEdqdW1kYzJtYQARABCAAACqADibcQN1cm46YzJwYToxZGQ1MzViMi1jZWU4LTQ3YzEtYTczYS0wY2M3Y2I0MjVmZjYAAAADl2p1bWIAAAApanVtZGMyYXMAEQAQgAAAqgA4m3EDYzJwYS5hc3NlcnRpb25zAAAAALxqdW1iAAAARGp1bWRjYm9yABEAEIAAAKoAOJtxE2MycGEuaW5ncmVkaWVudC52MwAAAAAYYzJzaH0xnM9hPdn3Bk/NsxCkTgoAAABwY2JvcqNpZGM6Zm9ybWF0bWltYWdlL3N2Zyt4bWxqaW5zdGFuY2VJRHgseG1wOmlpZDoyMTQzNmM1OS0xNTU5LTQwMzAtODM4MS05Nzg5MGUwYWE5ODlscmVsYXRpb25zaGlwaHBhcmVudE9mAAAB4mp1bWIAAABBanVtZGNib3IAEQAQgAAAqgA4m3ETYzJwYS5hY3Rpb25zLnYyAAAAABhjMnNoDHW5AK1p11fk1T48tgJp+wAAAZljYm9yomdhY3Rpb25zgqJmYWN0aW9ua2MycGEub3BlbmVkanBhcmFtZXRlcnOha2luZ3JlZGllbnRzgaJjdXJseC1zZWxmI2p1bWJmPWMycGEuYXNzZXJ0aW9ucy9jMnBhLmluZ3JlZGllbnQudjNkaGFzaFggJpsgJ8gQVGmgRdl+umc/RoR52RlSh79EyPN+cmpeBRWkZmFjdGlvbngdY29tLmFudGhyb3BpYy5jbGF1ZGUucHJvdmlkZWRqcGFyYW1ldGVyc6F4H2NvbS5hbnRocm9waWMub3JpZ2luLWNvbmZpZGVuY2VndW5rbm93bmtkZXNjcmlwdGlvbnhmQ2xhdWRlIHByb3ZpZGVkIHRoaXMgZmlsZSBhdCB0aGUgcmVxdWVzdCBvZiBhIHVzZXIgYW5kIG1heSBoYXZlIGNyZWF0ZWQgb3IgbW9kaWZpZWQgdGhlIGZpbGUgY29udGVudHMubXNvZnR3YXJlQWdlbnShZG5hbWVmQ2xhdWRlcmFsbEFjdGlvbnNJbmNsdWRlZPUAAADIanVtYgAAAEBqdW1kY2JvcgARABCAAACqADibcRNjMnBhLmhhc2guZGF0YQAAAAAYYzJzaN6TI8q5JZ2kvS9dsAxZ1pUAAACAY2JvcqVjYWxnZnNoYTI1NmNwYWRNAAAAAAAAAAAAAAAAAGRoYXNoWCDmgQK6tXC8Dk5O3LVU8ZA85y36M+BJDkBnLjPMSBt/X2RuYW1lbmp1bWJmIG1hbmlmZXN0amV4Y2x1c2lvbnOBomVzdGFydBjJZmxlbmd0aBkeBAAAAj5qdW1iAAAAJ2p1bWRjMmNsABEAEIAAAKoAOJtxA2MycGEuY2xhaW0udjIAAAACD2Nib3KlY2FsZ2ZzaGEyNTZpc2lnbmF0dXJleE1zZWxmI2p1bWJmPS9jMnBhL3VybjpjMnBhOjFkZDUzNWIyLWNlZTgtNDdjMS1hNzNhLTBjYzdjYjQyNWZmNi9jMnBhLnNpZ25hdHVyZWppbnN0YW5jZUlEeCx4bXA6aWlkOjE3NzU4ZTI1LWQ5Y2QtNGZlYy05ZGYwLWExYWYwN2QwY2ZiZXJjcmVhdGVkX2Fzc2VydGlvbnODomN1cmx4LXNlbGYjanVtYmY9YzJwYS5hc3NlcnRpb25zL2MycGEuaW5ncmVkaWVudC52M2RoYXNoWCAmmyAnyBBUaaBF2X66Zz9GhHnZGVKHv0TI835yal4FFaJjdXJseCpzZWxmI2p1bWJmPWMycGEuYXNzZXJ0aW9ucy9jMnBhLmFjdGlvbnMudjJkaGFzaFggTsThmaA17M6kTzPFwgwOyOQVycfiu3ZpvVQHnL0R6d2iY3VybHgpc2VsZiNqdW1iZj1jMnBhLmFzc2VydGlvbnMvYzJwYS5oYXNoLmRhdGFkaGFzaFggH5lKMc/SpJkat7PyoNqro2BaeQgqPCY8MSBvItP1O+50Y2xhaW1fZ2VuZXJhdG9yX2luZm+jZG5hbWVvQW50aHJvcGljIEZpbGVzZ3ZlcnNpb25lMS4wLjBrc3BlY1ZlcnNpb25lMi40LjAAABA4anVtYgAAAChqdW1kYzJjcwARABCAAACqADibcQNjMnBhLnNpZ25hdHVyZQAAABAIY2JvctKEWQISogEmGCFZAgowggIGMIIBjaADAgECAhRA5aAK7sI50L64g/oGQgU9Z1UTADAKBggqhkjOPQQDAzBJMRcwFQYDVQQKEw5BbnRocm9waWMsIFBCQzEuMCwGA1UEAxMlQW50aHJvcGljIENvbnRlbnQgQ3JlZGVudGlhbHMgUm9vdCBDQTAeFw0yNjA4MDcxODQzNTZaFw0yODA4MDYxOTQzNTZaMEQxFzAVBgNVBAoTDkFudGhyb3BpYywgUEJDMSkwJwYDVQQDEyBBbnRocm9waWMgQ2xhdWRlIENvbnRlbnQgU2lnbmluZzBZMBMGByqGSM49AgEGCCqGSM49AwEHA0IABJh6CmvLUBgFFNU0vUKlOVtE6djd17L5SuwX0LemFisBM3dkd/3cyjxFA3Qo5S46fX0/ihY0VZ7mfb9KF703t5OjWDBWMA4GA1UdDwEB/wQEAwIHgDAVBgNVHSUEDjAMBgorBgEEAYPoXgIBMAwGA1UdEwEB/wQCMAAwHwYDVR0jBBgwFoAUzlHiBIFOZFsj+OPEz5o+nMHXXMIwCgYIKoZIzj0EAwMDZwAwZAIwMXMdFJ4BetLLVY7ORuE9noqbbAZOZn/aArXyTwFAZfKrPzxF2vPoJNf1+UCdg1XGAjBwX1zd9WGqYkqmL5SFqw1QySjr1zJfpJM9+1rdDwSPLMOPOjKuiXjoU/pUUeG9RwmhY3BhZFkNngAAAAAAAAAAAAAAAAAAAAAAAAAAAAAAAAAAAAAAAAAAAAAAAAAAAAAAAAAAAAAAAAAAAAAAAAAAAAAAAAAAAAAAAAAAAAAAAAAAAAAAAAAAAAAAAAAAAAAAAAAAAAAAAAAAAAAAAAAAAAAAAAAAAAAAAAAAAAAAAAAAAAAAAAAAAAAAAAAAAAAAAAAAAAAAAAAAAAAAAAAAAAAAAAAAAAAAAAAAAAAAAAAAAAAAAAAAAAAAAAAAAAAAAAAAAAAAAAAAAAAAAAAAAAAAAAAAAAAAAAAAAAAAAAAAAAAAAAAAAAAAAAAAAAAAAAAAAAAAAAAAAAAAAAAAAAAAAAAAAAAAAAAAAAAAAAAAAAAAAAAAAAAAAAAAAAAAAAAAAAAAAAAAAAAAAAAAAAAAAAAAAAAAAAAAAAAAAAAAAAAAAAAAAAAAAAAAAAAAAAAAAAAAAAAAAAAAAAAAAAAAAAAAAAAAAAAAAAAAAAAAAAAAAAAAAAAAAAAAAAAAAAAAAAAAAAAAAAAAAAAAAAAAAAAAAAAAAAAAAAAAAAAAAAAAAAAAAAAAAAAAAAAAAAAAAAAAAAAAAAAAAAAAAAAAAAAAAAAAAAAAAAAAAAAAAAAAAAAAAAAAAAAAAAAAAAAAAAAAAAAAAAAAAAAAAAAAAAAAAAAAAAAAAAAAAAAAAAAAAAAAAAAAAAAAAAAAAAAAAAAAAAAAAAAAAAAAAAAAAAAAAAAAAAAAAAAAAAAAAAAAAAAAAAAAAAAAAAAAAAAAAAAAAAAAAAAAAAAAAAAAAAAAAAAAAAAAAAAAAAAAAAAAAAAAAAAAAAAAAAAAAAAAAAAAAAAAAAAAAAAAAAAAAAAAAAAAAAAAAAAAAAAAAAAAAAAAAAAAAAAAAAAAAAAAAAAAAAAAAAAAAAAAAAAAAAAAAAAAAAAAAAAAAAAAAAAAAAAAAAAAAAAAAAAAAAAAAAAAAAAAAAAAAAAAAAAAAAAAAAAAAAAAAAAAAAAAAAAAAAAAAAAAAAAAAAAAAAAAAAAAAAAAAAAAAAAAAAAAAAAAAAAAAAAAAAAAAAAAAAAAAAAAAAAAAAAAAAAAAAAAAAAAAAAAAAAAAAAAAAAAAAAAAAAAAAAAAAAAAAAAAAAAAAAAAAAAAAAAAAAAAAAAAAAAAAAAAAAAAAAAAAAAAAAAAAAAAAAAAAAAAAAAAAAAAAAAAAAAAAAAAAAAAAAAAAAAAAAAAAAAAAAAAAAAAAAAAAAAAAAAAAAAAAAAAAAAAAAAAAAAAAAAAAAAAAAAAAAAAAAAAAAAAAAAAAAAAAAAAAAAAAAAAAAAAAAAAAAAAAAAAAAAAAAAAAAAAAAAAAAAAAAAAAAAAAAAAAAAAAAAAAAAAAAAAAAAAAAAAAAAAAAAAAAAAAAAAAAAAAAAAAAAAAAAAAAAAAAAAAAAAAAAAAAAAAAAAAAAAAAAAAAAAAAAAAAAAAAAAAAAAAAAAAAAAAAAAAAAAAAAAAAAAAAAAAAAAAAAAAAAAAAAAAAAAAAAAAAAAAAAAAAAAAAAAAAAAAAAAAAAAAAAAAAAAAAAAAAAAAAAAAAAAAAAAAAAAAAAAAAAAAAAAAAAAAAAAAAAAAAAAAAAAAAAAAAAAAAAAAAAAAAAAAAAAAAAAAAAAAAAAAAAAAAAAAAAAAAAAAAAAAAAAAAAAAAAAAAAAAAAAAAAAAAAAAAAAAAAAAAAAAAAAAAAAAAAAAAAAAAAAAAAAAAAAAAAAAAAAAAAAAAAAAAAAAAAAAAAAAAAAAAAAAAAAAAAAAAAAAAAAAAAAAAAAAAAAAAAAAAAAAAAAAAAAAAAAAAAAAAAAAAAAAAAAAAAAAAAAAAAAAAAAAAAAAAAAAAAAAAAAAAAAAAAAAAAAAAAAAAAAAAAAAAAAAAAAAAAAAAAAAAAAAAAAAAAAAAAAAAAAAAAAAAAAAAAAAAAAAAAAAAAAAAAAAAAAAAAAAAAAAAAAAAAAAAAAAAAAAAAAAAAAAAAAAAAAAAAAAAAAAAAAAAAAAAAAAAAAAAAAAAAAAAAAAAAAAAAAAAAAAAAAAAAAAAAAAAAAAAAAAAAAAAAAAAAAAAAAAAAAAAAAAAAAAAAAAAAAAAAAAAAAAAAAAAAAAAAAAAAAAAAAAAAAAAAAAAAAAAAAAAAAAAAAAAAAAAAAAAAAAAAAAAAAAAAAAAAAAAAAAAAAAAAAAAAAAAAAAAAAAAAAAAAAAAAAAAAAAAAAAAAAAAAAAAAAAAAAAAAAAAAAAAAAAAAAAAAAAAAAAAAAAAAAAAAAAAAAAAAAAAAAAAAAAAAAAAAAAAAAAAAAAAAAAAAAAAAAAAAAAAAAAAAAAAAAAAAAAAAAAAAAAAAAAAAAAAAAAAAAAAAAAAAAAAAAAAAAAAAAAAAAAAAAAAAAAAAAAAAAAAAAAAAAAAAAAAAAAAAAAAAAAAAAAAAAAAAAAAAAAAAAAAAAAAAAAAAAAAAAAAAAAAAAAAAAAAAAAAAAAAAAAAAAAAAAAAAAAAAAAAAAAAAAAAAAAAAAAAAAAAAAAAAAAAAAAAAAAAAAAAAAAAAAAAAAAAAAAAAAAAAAAAAAAAAAAAAAAAAAAAAAAAAAAAAAAAAAAAAAAAAAAAAAAAAAAAAAAAAAAAAAAAAAAAAAAAAAAAAAAAAAAAAAAAAAAAAAAAAAAAAAAAAAAAAAAAAAAAAAAAAAAAAAAAAAAAAAAAAAAAAAAAAAAAAAAAAAAAAAAAAAAAAAAAAAAAAAAAAAAAAAAAAAAAAAAAAAAAAAAAAAAAAAAAAAAAAAAAAAAAAAAAAAAAAAAAAAAAAAAAAAAAAAAAAAAAAAAAAAAAAAAAAAAAAAAAAAAAAAAAAAAAAAAAAAAAAAAAAAAAAAAAAAAAAAAAAAAAAAAAAAAAAAAAAAAAAAAAAAAAAAAAAAAAAAAAAAAAAAAAAAAAAAAAAAAAAAAAAAAAAAAAAAAAAAAAAAAAAAAAAAAAAAAAAAAAAAAAAAAAAAAAAAAAAAAAAAAAAAAAAAAAAAAAAAAAAAAAAAAAAAAAAAAAAAAAAAAAAAAAAAAAAAAAAAAAAAAAAAAAAAAAAAAAAAAAAAAAAAAAAAAAAAAAAAAAAAAAAAAAAAAAAAAAAAAAAAAAAAAAAAAAAAAAAAAAAAAAAAAAAAAAAAAAAAAAAAAAAAAAAAAAAAAAAAAAAAAAAAAAAAAAAAAAAAAAAAAAAAAAAAAAAAAAAAAAAAAAAAAAAAAAAAAAAAAAAAAAAAAAAAAAAAAAAAAAAAAAAAAAAAAAAAAAAAAAAAAAAAAAAAAAAAAAAAAAAAAAAAAAAAAAAAAAAAAAAAAAAAAAAAAAAAAAAAAAAAAAAAAAAAAAAAAAAAAAAAAAAAAAAAAAAAAAAAAAAAAAAAAAAAAAAAAAAAAAAAAAAAAAAAAAAAAAAAAAAAAAAAAAAAAAAAAAAAAAAAAAAAAAAAAAAAAAAAAAAAAAAAAAAAAAAAAAAAAAAAAAAAAAAAAAAAAAAAAAAAAAAAAAAAAAAAAAAAAAAAAAAAAAAAAAAAAAAAAAAAAAAAAAAAAAAAAAAAAAAAAAAAAAAAAAAAAAAAAAAAAAAAAAAAAAAAAAAAAAAAAAAAAAAAAAAAAAAAAAAAAAAAAAAAAAAAAAAAAAAAAAAAAAAAAAAAAAAAAAAAAAAAAAAAAAAAAAAAAAAAAAAAAAAAAAAAAAAAAAAAAAAAAAAAAAAAAAAAAAAAAAAAAAAAAAAAAAAAAAAAAAAAAAAAAAAAAAAAAAAAAAAAAAAAAAAAAAAAAAAAAAAAAAAAAAAAAAAAAAAAAAAAAAAAAAAAAAAAAAAAAAAAAAAAAAAAAAAAAAAAAAAAAAAAAAAAAAAAAAAAAAAAAAAAAAAAAAAAAAAAAAAAAAAAAAAAAAAAAAAAAAAAAAAAAAAAAAAAAAAAAAAAAAAAAAAAAAAAAAAAAAAAAAAAAAAAAAAAAAAAAAAAAAAAAAAAAAAAAAAAAAAAAAAAAAAAAAAAAAAAAAAAAAAAAAAAAAAAAAAAAAAAAAAAAAAAAAAAAAAAAAAAAAAAAAAAAAAAAAAAAAAAAAAAAAAAAAAAAAAAAAAAAAAAAAAAAAAAAAAAAAAAAAAAAAAAAAAAAAAAAAAAAAAAAAAAAAAAAAAAAAAAAAAAAAAAAAAAAAAAAAAAAAAAAAAAAAAAAAAAAAAAAAAAAAAAAAAAAAAAAAAAAAAAAAAAAAAAAAAAAAAAAAAAAAAAAAAAAAAAAAAAAAAAAAAAAAAAAAAAAAAAAAAAAAAAAAAAAAAAAAAAAAAAAAAAAAAAAAAAAAAAAAAAAAAAAAAAAAAAAAAAAAAAAAAAAAAAAAAAAAAAAAAAAAAAAAAAAAAAAAAAAAAAAAAAAAAAAAAAAAAAAAAAAAAAAAAAAAAAAAAAAAAAAAAAAAAAAAAAAAAAAAAAAAAAAAAAAAAAAAAAAAAAAAAAAAAAAAAAAAAAAAAAAAAAAAAAAAAAAAAAAAAAAAAAAAAAAAAAAAAAAAAAAAAAAAAAAAAAAAAAAAAAAAAAAAAAAAAAAAAAAAAAAAAAAAAAAAAAAAAAAAAAAAAAAAAAAAAAAAAAAAAAAAAAAAAAAAAAAAAAAAAAAAAAAAAAAAAAAAAAAAAAAAAAAAAAAAAAAAAAAAAAPZYQPcDkxu+yBZ3o4LU5i6Q9ItwCIBG8jURo+KjkFF8vb+RNs0y5XErvOr6UIlDZhWeFGib9cFLexJZvHdjWVo6Njg=</c2pa:manifest></metadata>
<style>
.t{font:700 44px 'Segoe UI',Helvetica,Arial,sans-serif;letter-spacing:1px;text-anchor:middle}
.main{fill:#ffffff}
.web{fill:none;stroke:#e23636;stroke-width:1;opacity:.4;stroke-linecap:round}
.r{fill:#e23636;opacity:.55;animation:gr 5s steps(1,end) infinite}
.c{fill:#00d4ff;opacity:.55;animation:gc 5s steps(1,end) infinite}
.m{animation:gm 5s steps(1,end) infinite}
@keyframes gr{0%,90%,100%{transform:translate(-3px,0)}91%{transform:translate(-8px,1px);opacity:.9}93%{transform:translate(6px,-1px);opacity:.9}95%{transform:translate(-4px,2px);opacity:.9}97%{transform:translate(-3px,0)}}
@keyframes gc{0%,90%,100%{transform:translate(3px,0)}91%{transform:translate(8px,-1px);opacity:.9}93%{transform:translate(-6px,1px);opacity:.9}95%{transform:translate(4px,-2px);opacity:.9}97%{transform:translate(3px,0)}}
@keyframes gm{0%,90%,100%{transform:translate(0,0)}92%{transform:translate(3px,0)}94%{transform:translate(-3px,1px)}96%{transform:translate(0,0)}}
@media (prefers-color-scheme:light){.main{fill:#111111}}
</style>
<g class="dots" fill="#e23636" opacity=".2"><circle cx="126.5" cy="4.0" r="1.4"/><circle cx="137.5" cy="4.0" r="1.2"/><circle cx="148.5" cy="4.0" r="1.0"/><circle cx="159.5" cy="4.0" r="0.9"/><circle cx="170.5" cy="4.0" r="0.7"/><circle cx="181.5" cy="4.0" r="0.5"/><circle cx="720.5" cy="4.0" r="0.6"/><circle cx="731.5" cy="4.0" r="0.7"/><circle cx="742.5" cy="4.0" r="0.9"/><circle cx="753.5" cy="4.0" r="1.1"/><circle cx="764.5" cy="4.0" r="1.2"/><circle cx="775.5" cy="4.0" r="1.4"/><circle cx="786.5" cy="4.0" r="1.6"/><circle cx="797.5" cy="4.0" r="1.8"/><circle cx="808.5" cy="4.0" r="1.9"/><circle cx="819.5" cy="4.0" r="2.1"/><circle cx="830.5" cy="4.0" r="2.2"/><circle cx="841.5" cy="4.0" r="2.3"/><circle cx="852.5" cy="4.0" r="2.4"/><circle cx="863.5" cy="4.0" r="2.5"/><circle cx="874.5" cy="4.0" r="2.5"/><circle cx="885.5" cy="4.0" r="2.5"/><circle cx="896.5" cy="4.0" r="2.5"/><circle cx="132.0" cy="11.5" r="1.3"/><circle cx="143.0" cy="11.5" r="1.1"/><circle cx="154.0" cy="11.5" r="0.9"/><circle cx="165.0" cy="11.5" r="0.8"/><circle cx="176.0" cy="11.5" r="0.6"/><circle cx="187.0" cy="11.5" r="0.5"/><circle cx="715.0" cy="11.5" r="0.5"/><circle cx="726.0" cy="11.5" r="0.6"/><circle cx="737.0" cy="11.5" r="0.8"/><circle cx="748.0" cy="11.5" r="1.0"/><circle cx="759.0" cy="11.5" r="1.2"/><circle cx="770.0" cy="11.5" r="1.3"/><circle cx="781.0" cy="11.5" r="1.5"/><circle cx="792.0" cy="11.5" r="1.7"/><circle cx="803.0" cy="11.5" r="1.8"/><circle cx="814.0" cy="11.5" r="2.0"/><circle cx="825.0" cy="11.5" r="2.1"/><circle cx="836.0" cy="11.5" r="2.3"/><circle cx="847.0" cy="11.5" r="2.4"/><circle cx="858.0" cy="11.5" r="2.4"/><circle cx="869.0" cy="11.5" r="2.5"/><circle cx="880.0" cy="11.5" r="2.5"/><circle cx="891.0" cy="11.5" r="2.5"/><circle cx="126.5" cy="19.0" r="1.4"/><circle cx="137.5" cy="19.0" r="1.2"/><circle cx="148.5" cy="19.0" r="1.0"/><circle cx="159.5" cy="19.0" r="0.9"/><circle cx="170.5" cy="19.0" r="0.7"/><circle cx="181.5" cy="19.0" r="0.5"/><circle cx="720.5" cy="19.0" r="0.6"/><circle cx="731.5" cy="19.0" r="0.7"/><circle cx="742.5" cy="19.0" r="0.9"/><circle cx="753.5" cy="19.0" r="1.1"/><circle cx="764.5" cy="19.0" r="1.2"/><circle cx="775.5" cy="19.0" r="1.4"/><circle cx="786.5" cy="19.0" r="1.6"/><circle cx="797.5" cy="19.0" r="1.8"/><circle cx="808.5" cy="19.0" r="1.9"/><circle cx="819.5" cy="19.0" r="2.1"/><circle cx="830.5" cy="19.0" r="2.2"/><circle cx="841.5" cy="19.0" r="2.3"/><circle cx="852.5" cy="19.0" r="2.4"/><circle cx="863.5" cy="19.0" r="2.5"/><circle cx="874.5" cy="19.0" r="2.5"/><circle cx="121.0" cy="26.5" r="1.5"/><circle cx="132.0" cy="26.5" r="1.3"/><circle cx="143.0" cy="26.5" r="1.1"/><circle cx="154.0" cy="26.5" r="0.9"/><circle cx="165.0" cy="26.5" r="0.8"/><circle cx="176.0" cy="26.5" r="0.6"/><circle cx="187.0" cy="26.5" r="0.5"/><circle cx="715.0" cy="26.5" r="0.5"/><circle cx="726.0" cy="26.5" r="0.6"/><circle cx="737.0" cy="26.5" r="0.8"/><circle cx="748.0" cy="26.5" r="1.0"/><circle cx="759.0" cy="26.5" r="1.2"/><circle cx="770.0" cy="26.5" r="1.3"/><circle cx="781.0" cy="26.5" r="1.5"/><circle cx="792.0" cy="26.5" r="1.7"/><circle cx="803.0" cy="26.5" r="1.8"/><circle cx="814.0" cy="26.5" r="2.0"/><circle cx="825.0" cy="26.5" r="2.1"/><circle cx="836.0" cy="26.5" r="2.3"/><circle cx="847.0" cy="26.5" r="2.4"/><circle cx="126.5" cy="34.0" r="1.4"/><circle cx="137.5" cy="34.0" r="1.2"/><circle cx="148.5" cy="34.0" r="1.0"/><circle cx="159.5" cy="34.0" r="0.9"/><circle cx="170.5" cy="34.0" r="0.7"/><circle cx="181.5" cy="34.0" r="0.5"/><circle cx="720.5" cy="34.0" r="0.6"/><circle cx="731.5" cy="34.0" r="0.7"/><circle cx="742.5" cy="34.0" r="0.9"/><circle cx="753.5" cy="34.0" r="1.1"/><circle cx="764.5" cy="34.0" r="1.2"/><circle cx="775.5" cy="34.0" r="1.4"/><circle cx="786.5" cy="34.0" r="1.6"/><circle cx="797.5" cy="34.0" r="1.8"/><circle cx="808.5" cy="34.0" r="1.9"/><circle cx="819.5" cy="34.0" r="2.1"/><circle cx="830.5" cy="34.0" r="2.2"/><circle cx="121.0" cy="41.5" r="1.5"/><circle cx="132.0" cy="41.5" r="1.3"/><circle cx="143.0" cy="41.5" r="1.1"/><circle cx="154.0" cy="41.5" r="0.9"/><circle cx="165.0" cy="41.5" r="0.8"/><circle cx="176.0" cy="41.5" r="0.6"/><circle cx="187.0" cy="41.5" r="0.5"/><circle cx="715.0" cy="41.5" r="0.5"/><circle cx="726.0" cy="41.5" r="0.6"/><circle cx="737.0" cy="41.5" r="0.8"/><circle cx="748.0" cy="41.5" r="1.0"/><circle cx="759.0" cy="41.5" r="1.2"/><circle cx="770.0" cy="41.5" r="1.3"/><circle cx="781.0" cy="41.5" r="1.5"/><circle cx="792.0" cy="41.5" r="1.7"/><circle cx="803.0" cy="41.5" r="1.8"/><circle cx="814.0" cy="41.5" r="2.0"/><circle cx="825.0" cy="41.5" r="2.1"/><circle cx="115.5" cy="49.0" r="1.6"/><circle cx="126.5" cy="49.0" r="1.4"/><circle cx="137.5" cy="49.0" r="1.2"/><circle cx="148.5" cy="49.0" r="1.0"/><circle cx="159.5" cy="49.0" r="0.9"/><circle cx="170.5" cy="49.0" r="0.7"/><circle cx="181.5" cy="49.0" r="0.5"/><circle cx="720.5" cy="49.0" r="0.6"/><circle cx="731.5" cy="49.0" r="0.7"/><circle cx="742.5" cy="49.0" r="0.9"/><circle cx="753.5" cy="49.0" r="1.1"/><circle cx="764.5" cy="49.0" r="1.2"/><circle cx="775.5" cy="49.0" r="1.4"/><circle cx="786.5" cy="49.0" r="1.6"/><circle cx="797.5" cy="49.0" r="1.8"/><circle cx="808.5" cy="49.0" r="1.9"/><circle cx="110.0" cy="56.5" r="1.7"/><circle cx="121.0" cy="56.5" r="1.5"/><circle cx="132.0" cy="56.5" r="1.3"/><circle cx="143.0" cy="56.5" r="1.1"/><circle cx="154.0" cy="56.5" r="0.9"/><circle cx="165.0" cy="56.5" r="0.8"/><circle cx="176.0" cy="56.5" r="0.6"/><circle cx="187.0" cy="56.5" r="0.5"/><circle cx="715.0" cy="56.5" r="0.5"/><circle cx="726.0" cy="56.5" r="0.6"/><circle cx="737.0" cy="56.5" r="0.8"/><circle cx="748.0" cy="56.5" r="1.0"/><circle cx="759.0" cy="56.5" r="1.2"/><circle cx="770.0" cy="56.5" r="1.3"/><circle cx="781.0" cy="56.5" r="1.5"/><circle cx="792.0" cy="56.5" r="1.7"/><circle cx="803.0" cy="56.5" r="1.8"/><circle cx="104.5" cy="64.0" r="1.7"/><circle cx="115.5" cy="64.0" r="1.6"/><circle cx="126.5" cy="64.0" r="1.4"/><circle cx="137.5" cy="64.0" r="1.2"/><circle cx="148.5" cy="64.0" r="1.0"/><circle cx="159.5" cy="64.0" r="0.9"/><circle cx="170.5" cy="64.0" r="0.7"/><circle cx="181.5" cy="64.0" r="0.5"/><circle cx="720.5" cy="64.0" r="0.6"/><circle cx="731.5" cy="64.0" r="0.7"/><circle cx="742.5" cy="64.0" r="0.9"/><circle cx="753.5" cy="64.0" r="1.1"/><circle cx="764.5" cy="64.0" r="1.2"/><circle cx="775.5" cy="64.0" r="1.4"/><circle cx="786.5" cy="64.0" r="1.6"/><circle cx="797.5" cy="64.0" r="1.8"/><circle cx="99.0" cy="71.5" r="1.8"/><circle cx="110.0" cy="71.5" r="1.7"/><circle cx="121.0" cy="71.5" r="1.5"/><circle cx="132.0" cy="71.5" r="1.3"/><circle cx="143.0" cy="71.5" r="1.1"/><circle cx="154.0" cy="71.5" r="0.9"/><circle cx="165.0" cy="71.5" r="0.8"/><circle cx="176.0" cy="71.5" r="0.6"/><circle cx="187.0" cy="71.5" r="0.5"/><circle cx="715.0" cy="71.5" r="0.5"/><circle cx="726.0" cy="71.5" r="0.6"/><circle cx="737.0" cy="71.5" r="0.8"/><circle cx="748.0" cy="71.5" r="1.0"/><circle cx="759.0" cy="71.5" r="1.2"/><circle cx="770.0" cy="71.5" r="1.3"/><circle cx="781.0" cy="71.5" r="1.5"/><circle cx="792.0" cy="71.5" r="1.7"/><circle cx="93.5" cy="79.0" r="1.9"/><circle cx="104.5" cy="79.0" r="1.7"/><circle cx="115.5" cy="79.0" r="1.6"/><circle cx="126.5" cy="79.0" r="1.4"/><circle cx="137.5" cy="79.0" r="1.2"/><circle cx="148.5" cy="79.0" r="1.0"/><circle cx="159.5" cy="79.0" r="0.9"/><circle cx="170.5" cy="79.0" r="0.7"/><circle cx="181.5" cy="79.0" r="0.5"/><circle cx="720.5" cy="79.0" r="0.6"/><circle cx="731.5" cy="79.0" r="0.7"/><circle cx="742.5" cy="79.0" r="0.9"/><circle cx="753.5" cy="79.0" r="1.1"/><circle cx="764.5" cy="79.0" r="1.2"/><circle cx="775.5" cy="79.0" r="1.4"/><circle cx="786.5" cy="79.0" r="1.6"/><circle cx="88.0" cy="86.5" r="2.0"/><circle cx="99.0" cy="86.5" r="1.8"/><circle cx="110.0" cy="86.5" r="1.7"/><circle cx="121.0" cy="86.5" r="1.5"/><circle cx="132.0" cy="86.5" r="1.3"/><circle cx="143.0" cy="86.5" r="1.1"/><circle cx="154.0" cy="86.5" r="0.9"/><circle cx="165.0" cy="86.5" r="0.8"/><circle cx="176.0" cy="86.5" r="0.6"/><circle cx="187.0" cy="86.5" r="0.5"/><circle cx="715.0" cy="86.5" r="0.5"/><circle cx="726.0" cy="86.5" r="0.6"/><circle cx="737.0" cy="86.5" r="0.8"/><circle cx="748.0" cy="86.5" r="1.0"/><circle cx="759.0" cy="86.5" r="1.2"/><circle cx="770.0" cy="86.5" r="1.3"/><circle cx="781.0" cy="86.5" r="1.5"/><circle cx="82.5" cy="94.0" r="2.0"/><circle cx="93.5" cy="94.0" r="1.9"/><circle cx="104.5" cy="94.0" r="1.7"/><circle cx="115.5" cy="94.0" r="1.6"/><circle cx="126.5" cy="94.0" r="1.4"/><circle cx="137.5" cy="94.0" r="1.2"/><circle cx="148.5" cy="94.0" r="1.0"/><circle cx="159.5" cy="94.0" r="0.9"/><circle cx="170.5" cy="94.0" r="0.7"/><circle cx="181.5" cy="94.0" r="0.5"/><circle cx="720.5" cy="94.0" r="0.6"/><circle cx="731.5" cy="94.0" r="0.7"/><circle cx="742.5" cy="94.0" r="0.9"/><circle cx="753.5" cy="94.0" r="1.1"/><circle cx="764.5" cy="94.0" r="1.2"/><circle cx="775.5" cy="94.0" r="1.4"/><circle cx="786.5" cy="94.0" r="1.6"/><circle cx="77.0" cy="101.5" r="2.1"/><circle cx="88.0" cy="101.5" r="2.0"/><circle cx="99.0" cy="101.5" r="1.8"/><circle cx="110.0" cy="101.5" r="1.7"/><circle cx="121.0" cy="101.5" r="1.5"/><circle cx="132.0" cy="101.5" r="1.3"/><circle cx="143.0" cy="101.5" r="1.1"/><circle cx="154.0" cy="101.5" r="0.9"/><circle cx="165.0" cy="101.5" r="0.8"/><circle cx="176.0" cy="101.5" r="0.6"/><circle cx="187.0" cy="101.5" r="0.5"/><circle cx="715.0" cy="101.5" r="0.5"/><circle cx="726.0" cy="101.5" r="0.6"/><circle cx="737.0" cy="101.5" r="0.8"/><circle cx="748.0" cy="101.5" r="1.0"/><circle cx="759.0" cy="101.5" r="1.2"/><circle cx="770.0" cy="101.5" r="1.3"/><circle cx="781.0" cy="101.5" r="1.5"/><circle cx="60.5" cy="109.0" r="2.3"/><circle cx="71.5" cy="109.0" r="2.2"/><circle cx="82.5" cy="109.0" r="2.0"/><circle cx="93.5" cy="109.0" r="1.9"/><circle cx="104.5" cy="109.0" r="1.7"/><circle cx="115.5" cy="109.0" r="1.6"/><circle cx="126.5" cy="109.0" r="1.4"/><circle cx="137.5" cy="109.0" r="1.2"/><circle cx="148.5" cy="109.0" r="1.0"/><circle cx="159.5" cy="109.0" r="0.9"/><circle cx="170.5" cy="109.0" r="0.7"/><circle cx="181.5" cy="109.0" r="0.5"/><circle cx="720.5" cy="109.0" r="0.6"/><circle cx="731.5" cy="109.0" r="0.7"/><circle cx="742.5" cy="109.0" r="0.9"/><circle cx="753.5" cy="109.0" r="1.1"/><circle cx="764.5" cy="109.0" r="1.2"/><circle cx="775.5" cy="109.0" r="1.4"/><circle cx="44.0" cy="116.5" r="2.4"/><circle cx="55.0" cy="116.5" r="2.3"/><circle cx="66.0" cy="116.5" r="2.2"/><circle cx="77.0" cy="116.5" r="2.1"/><circle cx="88.0" cy="116.5" r="2.0"/><circle cx="99.0" cy="116.5" r="1.8"/><circle cx="110.0" cy="116.5" r="1.7"/><circle cx="121.0" cy="116.5" r="1.5"/><circle cx="132.0" cy="116.5" r="1.3"/><circle cx="143.0" cy="116.5" r="1.1"/><circle cx="154.0" cy="116.5" r="0.9"/><circle cx="165.0" cy="116.5" r="0.8"/><circle cx="176.0" cy="116.5" r="0.6"/><circle cx="187.0" cy="116.5" r="0.5"/><circle cx="715.0" cy="116.5" r="0.5"/><circle cx="726.0" cy="116.5" r="0.6"/><circle cx="737.0" cy="116.5" r="0.8"/><circle cx="748.0" cy="116.5" r="1.0"/><circle cx="759.0" cy="116.5" r="1.2"/><circle cx="770.0" cy="116.5" r="1.3"/><circle cx="5.5" cy="124.0" r="2.5"/><circle cx="16.5" cy="124.0" r="2.5"/><circle cx="27.5" cy="124.0" r="2.5"/><circle cx="38.5" cy="124.0" r="2.5"/><circle cx="49.5" cy="124.0" r="2.4"/><circle cx="60.5" cy="124.0" r="2.3"/><circle cx="71.5" cy="124.0" r="2.2"/><circle cx="82.5" cy="124.0" r="2.0"/><circle cx="93.5" cy="124.0" r="1.9"/><circle cx="104.5" cy="124.0" r="1.7"/><circle cx="115.5" cy="124.0" r="1.6"/><circle cx="126.5" cy="124.0" r="1.4"/><circle cx="137.5" cy="124.0" r="1.2"/><circle cx="148.5" cy="124.0" r="1.0"/><circle cx="159.5" cy="124.0" r="0.9"/><circle cx="170.5" cy="124.0" r="0.7"/><circle cx="181.5" cy="124.0" r="0.5"/><circle cx="720.5" cy="124.0" r="0.6"/><circle cx="731.5" cy="124.0" r="0.7"/><circle cx="742.5" cy="124.0" r="0.9"/><circle cx="753.5" cy="124.0" r="1.1"/><circle cx="764.5" cy="124.0" r="1.2"/><circle cx="775.5" cy="124.0" r="1.4"/><circle cx="11.0" cy="131.5" r="2.5"/><circle cx="22.0" cy="131.5" r="2.5"/><circle cx="33.0" cy="131.5" r="2.5"/><circle cx="44.0" cy="131.5" r="2.4"/><circle cx="55.0" cy="131.5" r="2.3"/><circle cx="66.0" cy="131.5" r="2.2"/><circle cx="77.0" cy="131.5" r="2.1"/><circle cx="88.0" cy="131.5" r="2.0"/><circle cx="99.0" cy="131.5" r="1.8"/><circle cx="110.0" cy="131.5" r="1.7"/><circle cx="121.0" cy="131.5" r="1.5"/><circle cx="132.0" cy="131.5" r="1.3"/><circle cx="143.0" cy="131.5" r="1.1"/><circle cx="154.0" cy="131.5" r="0.9"/><circle cx="165.0" cy="131.5" r="0.8"/><circle cx="176.0" cy="131.5" r="0.6"/><circle cx="187.0" cy="131.5" r="0.5"/><circle cx="715.0" cy="131.5" r="0.5"/><circle cx="726.0" cy="131.5" r="0.6"/><circle cx="737.0" cy="131.5" r="0.8"/><circle cx="748.0" cy="131.5" r="1.0"/><circle cx="759.0" cy="131.5" r="1.2"/><circle cx="770.0" cy="131.5" r="1.3"/><circle cx="5.5" cy="139.0" r="2.5"/><circle cx="16.5" cy="139.0" r="2.5"/><circle cx="27.5" cy="139.0" r="2.5"/><circle cx="38.5" cy="139.0" r="2.5"/><circle cx="49.5" cy="139.0" r="2.4"/><circle cx="60.5" cy="139.0" r="2.3"/><circle cx="71.5" cy="139.0" r="2.2"/><circle cx="82.5" cy="139.0" r="2.0"/><circle cx="93.5" cy="139.0" r="1.9"/><circle cx="104.5" cy="139.0" r="1.7"/><circle cx="115.5" cy="139.0" r="1.6"/><circle cx="126.5" cy="139.0" r="1.4"/><circle cx="137.5" cy="139.0" r="1.2"/><circle cx="148.5" cy="139.0" r="1.0"/><circle cx="159.5" cy="139.0" r="0.9"/><circle cx="170.5" cy="139.0" r="0.7"/><circle cx="181.5" cy="139.0" r="0.5"/><circle cx="720.5" cy="139.0" r="0.6"/><circle cx="731.5" cy="139.0" r="0.7"/><circle cx="742.5" cy="139.0" r="0.9"/><circle cx="753.5" cy="139.0" r="1.1"/><circle cx="764.5" cy="139.0" r="1.2"/><circle cx="775.5" cy="139.0" r="1.4"/></g>
<g class="web"><path d="M0 0L112.0 0.0M0 0L103.5 42.9M0 0L79.2 79.2M0 0L42.9 103.5M0 0L0.0 112.0M26.0 0.0Q21.0 4.2 24.0 9.9M24.0 9.9Q17.8 11.9 18.4 18.4M18.4 18.4Q11.9 17.8 9.9 24.0M9.9 24.0Q4.2 21.0 0.0 26.0M52.0 0.0Q42.0 8.4 48.0 19.9M48.0 19.9Q35.6 23.8 36.8 36.8M36.8 36.8Q23.8 35.6 19.9 48.0M19.9 48.0Q8.4 42.0 0.0 52.0M78.0 0.0Q63.0 12.5 72.1 29.8M72.1 29.8Q53.4 35.7 55.2 55.2M55.2 55.2Q35.7 53.4 29.8 72.1M29.8 72.1Q12.5 63.0 0.0 78.0M104.0 0.0Q84.0 16.7 96.1 39.8M96.1 39.8Q71.2 47.6 73.5 73.5M73.5 73.5Q47.6 71.2 39.8 96.1M39.8 96.1Q16.7 84.0 0.0 104.0"/></g>
<g class="web" transform="translate(900 140) rotate(180)"><path d="M0 0L112.0 0.0M0 0L103.5 42.9M0 0L79.2 79.2M0 0L42.9 103.5M0 0L0.0 112.0M26.0 0.0Q21.0 4.2 24.0 9.9M24.0 9.9Q17.8 11.9 18.4 18.4M18.4 18.4Q11.9 17.8 9.9 24.0M9.9 24.0Q4.2 21.0 0.0 26.0M52.0 0.0Q42.0 8.4 48.0 19.9M48.0 19.9Q35.6 23.8 36.8 36.8M36.8 36.8Q23.8 35.6 19.9 48.0M19.9 48.0Q8.4 42.0 0.0 52.0M78.0 0.0Q63.0 12.5 72.1 29.8M72.1 29.8Q53.4 35.7 55.2 55.2M55.2 55.2Q35.7 53.4 29.8 72.1M29.8 72.1Q12.5 63.0 0.0 78.0M104.0 0.0Q84.0 16.7 96.1 39.8M96.1 39.8Q71.2 47.6 73.5 73.5M73.5 73.5Q47.6 71.2 39.8 96.1M39.8 96.1Q16.7 84.0 0.0 104.0"/></g>
<text class="t r" x="450" y="86">Jose Miguel García Vélez</text>
<text class="t c" x="450" y="86">Jose Miguel García Vélez</text>
<text class="t main m" x="450" y="86">Jose Miguel García Vélez</text>
</svg>
